<svg xmlns="http://www.w3.org/2000/svg" viewBox="0 0 900 360"><defs><filter id="b"><feGaussianBlur stdDeviation="18"/></filter><linearGradient id="g" x1="0" y1="0" x2="1" y2="1"><stop stop-color="#7b72ff"/><stop offset="1" stop-color="#ef5d43"/></linearGradient></defs><ellipse cx="610" cy="180" rx="260" ry="120" fill="#dfe8ff" opacity=".6" filter="url(#b)"/><ellipse cx="710" cy="135" rx="140" ry="85" fill="#ffd8cb" opacity=".68" filter="url(#b)"/><path d="M390 185c90-105 265-118 365-20" fill="none" stroke="#ff7c62" stroke-width="3" stroke-dasharray="8 10" opacity=".7"/><path d="M430 235c95 60 250 50 330-30" fill="none" stroke="#7b72ff" stroke-width="3" stroke-dasharray="8 10" opacity=".65"/><g transform="translate(455 115)"><rect width="250" height="132" rx="28" fill="white" stroke="#e7eaf2"/><circle cx="46" cy="66" r="24" fill="#ddf5e8"/><path d="M35 66l8 8 16-20" fill="none" stroke="#2fb878" stroke-width="7" stroke-linecap="round" stroke-linejoin="round"/><rect x="86" y="45" width="118" height="14" rx="7" fill="#e7e7fb"/><rect x="86" y="72" width="82" height="10" rx="5" fill="#f1edf8"/></g><g><circle cx="395" cy="115" r="30" fill="#2f73dd"/><circle cx="742" cy="96" r="30" fill="#f34c74"/><circle cx="785" cy="220" r="30" fill="#111827"/><circle cx="420" cy="270" r="30" fill="#2c9ac7"/><g fill="white"><circle cx="395" cy="115" r="7"/><circle cx="742" cy="96" r="7"/><circle cx="785" cy="220" r="7"/><circle cx="420" cy="270" r="7"/></g></g><g transform="translate(690 145)"><circle cx="78" cy="78" r="54" fill="url(#g)" opacity=".18"/><rect x="48" y="46" width="58" height="52" rx="18" fill="#2b315b"/><circle cx="66" cy="67" r="5" fill="#9fe4ff"/><circle cx="88" cy="67" r="5" fill="#9fe4ff"/><path d="M66 83c7 7 15 7 22 0" fill="none" stroke="#9fe4ff" stroke-width="4" stroke-linecap="round"/></g></svg>